<?xml version="1.0" encoding="UTF-8"?>
<svg width="17px" height="98px" viewBox="0 0 17 98" version="1.1" xmlns="http://www.w3.org/2000/svg" xmlns:xlink="http://www.w3.org/1999/xlink">
    <!-- Generator: Sketch 52.3 (67297) - http://www.bohemiancoding.com/sketch -->
    <title>Group</title>
    <desc>Created with Sketch.</desc>
    <defs>
        <polygon id="path-1" points="0.225295263 0.222671433 10.2851563 0.222671433 10.2851563 83.7032469 0.225295263 83.7032469"></polygon>
    </defs>
    <g id="Page-1" stroke="none" stroke-width="1" fill="none" fill-rule="evenodd">
        <g id="Desktop-HD-Copy" transform="translate(-717.000000, -472.000000)">
            <g id="Group-93" transform="translate(677.000000, 418.000000)">
                <g id="Group" transform="translate(40.000000, 54.000000)">
                    <g id="Group-53" transform="translate(0.331579, 13.586473)">
                        <mask id="mask-2" fill="white">
                            <use xlink:href="#path-1"></use>
                        </mask>
                        <g id="Clip-52"></g>
                        <path d="M9.26926895,6.99691558 C7.81682158,4.68285873 6.28575316,2.42027159 4.66891632,0.222671433 L0.225295263,81.0508938 C0.225295263,82.5159606 3.79591632,83.7034029 8.20073737,83.7034029 C8.59741632,83.7034029 8.98388474,83.6909254 9.36473737,83.6716893 C10.9897426,60.0200631 10.1417584,27.8925734 9.26926895,6.99691558" id="Fill-51" fill="#44CA5F" mask="url(#mask-2)"></path>
                    </g>
                    <path d="M8.62467053,0.883179227 L5.71109684,0.883179227 L5.00044421,13.8088322 C6.61728105,16.0069522 8.14834947,18.2690195 9.60079684,20.5835962 C9.20360737,11.0658612 8.80131263,3.87777986 8.62467053,0.883179227" id="Fill-54" fill="#417505"></path>
                    <path d="M12.7263411,25.8544053 L11.3540463,0.883283206 L8.62477263,0.883283206 C8.80141474,3.87788384 9.20370947,11.0659652 9.60089895,20.5831803 C10.6862779,22.3128741 11.7369411,24.0659632 12.7263411,25.8544053" id="Fill-56" fill="#35590B"></path>
                    <path d="M9.60084789,20.5833883 C10.4733374,41.479046 11.3213216,73.6065358 9.69631632,97.2581619 C13.5477268,97.0704795 16.5077584,95.9708996 16.5077584,94.6373665 L12.72629,25.8546132 C11.73689,24.0656513 10.6862268,22.3130821 9.60084789,20.5833883" id="Fill-58" fill="#7ED321"></path>
                </g>
            </g>
        </g>
    </g>
</svg>